<svg viewBox="0 0 368 41" xmlns="http://www.w3.org/2000/svg" class="full-logo"><g fill="none" fill-rule="evenodd"><path d="M140.672 14.622h37.773c6.806 0 10.277 3.327 10.277 10.674v.277c0 7.347-3.403 10.674-10.277 10.674h-37.773c-.696 0-1.11-.415-1.11-1.108v-.555c0-.693.414-1.109 1.11-1.109h36.524c6.248 0 8.888-1.94 8.888-8.04 0-6.099-2.64-8.04-8.888-8.04h-36.524c-.696 0-1.11-.416-1.11-1.108v-.555c0-.693.414-1.11 1.11-1.11" fill="#00A3DA"></path> <path d="M177.05 27.128h-37.774C132.47 27.128 129 23.8 129 16.454v-.277c0-7.347 3.403-10.675 10.276-10.675h37.774c.694 0 1.112.417 1.112 1.11v.555c0 .692-.418 1.108-1.112 1.108h-36.524c-6.25 0-8.887 1.941-8.887 8.04 0 6.099 2.637 8.04 8.887 8.04h36.524c.694 0 1.112.415 1.112 1.108v.555c0 .693-.418 1.11-1.112 1.11" fill="#636463"></path> <path d="M173.636 25.988a2.93 2.93 0 0 1 2.932-2.927 2.93 2.93 0 0 1 2.934 2.927 2.93 2.93 0 0 1-2.934 2.927 2.93 2.93 0 0 1-2.932-2.927M173.636 6.927A2.93 2.93 0 0 1 176.568 4a2.93 2.93 0 0 1 2.934 2.927 2.93 2.93 0 0 1-2.934 2.927 2.93 2.93 0 0 1-2.932-2.927" fill="#636463"></path> <path d="M139 34.5a2.5 2.5 0 1 1 5 0 2.5 2.5 0 0 1-5 0M139 16.5a2.501 2.501 0 1 1 5.002.002A2.501 2.501 0 0 1 139 16.5" fill="#00A3DA"></path> <path d="M17.343 13.285c0 .573-.34.916-.907.916h-.453c-.567 0-.907-.343-.907-.916V9.162c0-4.81-1.644-6.986-6.404-6.986-4.761 0-6.405 2.176-6.405 6.986v2.806c0 3.207 1.134 3.951 4.364 5.726l6.405 3.493c2.493 1.374 4.42 3.722 4.42 6.414v5.039c0 5.611-2.663 8.36-8.671 8.36h-.113C2.664 41 0 38.309 0 32.64v-5.498c0-.572.34-.916.907-.916h.453c.567 0 .907.344.907.916v4.581c0 4.753 1.644 7.101 6.461 7.101 4.818 0 6.461-2.348 6.461-7.1v-3.207c0-3.207-1.303-4.238-4.59-6.07L4.364 19.01C1.19 17.236 0 15.747 0 12.77V8.246C0 2.863 3.174 0 8.615 0h.113c5.441 0 8.615 2.863 8.615 8.246v5.039zm7.241-11.91c0-.573.34-.917.907-.917h.454c.566 0 .906.344.906.916v17.694h13.886V1.374c0-.572.34-.916.907-.916h.453c.567 0 .907.344.907.916v38.252c0 .572-.34.916-.907.916h-.453c-.567 0-.907-.344-.907-.916V21.244H26.851v18.382c0 .572-.34.916-.906.916h-.454c-.567 0-.907-.344-.907-.916V1.374zM69.29 39.51c.113.63-.17 1.03-.794 1.03h-.566c-.51 0-.85-.228-.964-.8l-2.21-9.85h-11.45l-2.21 9.85c-.113.572-.453.8-.963.8h-.453c-.624 0-.907-.4-.794-1.03L57.67 1.26c.113-.573.453-.802.964-.802h.793c.51 0 .85.23.964.802l8.898 38.251zM53.816 27.715h10.429L59.03 4.638l-5.214 23.077zM84.295.458c6.007 0 8.841 2.978 8.841 8.475v6.013c0 5.497-2.834 8.474-8.841 8.474h-6.858v16.206c0 .572-.34.916-.907.916h-.453c-.567 0-.907-.344-.907-.916V1.374c0-.572.34-.916.907-.916h8.218zm6.574 13.457V9.964c0-5.154-1.814-7.33-6.801-7.33h-6.631v18.61h6.63c4.988 0 6.802-2.176 6.802-7.33zM115 39.625c0 .573-.34.917-.907.917h-13.489c-.567 0-.907-.344-.907-.916V1.374c0-.572.34-.916.907-.916h13.32c.566 0 .906.344.906.916v.344c0 .573-.34.916-.907.916h-11.959v16.492h10.202c.567 0 .907.343.907.916v.343c0 .573-.34.917-.907.917h-10.202v17.064h12.13c.566 0 .906.343.906.916v.344z" fill="#636463" fill-rule="nonzero"></path> <path d="M219.87 24.795c.567 0 .907.343.907.916v6.814c0 5.612-2.831 8.475-8.832 8.475h-.113C205.83 41 203 38.194 203 32.525V8.475C203 3.092 205.83 0 211.832 0h.113c6 0 8.832 3.092 8.832 8.475v5.84c0 .573-.34.917-.906.917h-.453c-.566 0-.906-.344-.906-.916v-4.81c0-5.097-1.698-7.33-6.624-7.33-4.925 0-6.623 2.233-6.623 7.33v21.988c0 5.097 1.698 7.33 6.623 7.33 4.926 0 6.624-2.233 6.624-7.33v-5.783c0-.573.34-.916.906-.916h.453zm8.252-16.32c0-5.555 2.83-8.475 8.832-8.475h.453c6 0 8.832 2.978 8.832 8.475v24.05c0 5.497-2.831 8.475-8.832 8.475h-.453c-6.001 0-8.832-2.978-8.832-8.475V8.475zm2.265 23.02c0 5.153 1.811 7.329 6.793 7.329s6.794-2.176 6.794-7.33V9.506c0-5.154-1.812-7.33-6.794-7.33-4.982 0-6.793 2.176-6.793 7.33v21.988zm25.915 8.13c0 .573-.34.917-.906.917h-.453c-.566 0-.906-.344-.906-.916V1.374c0-.572.34-.916.906-.916h.736c.51 0 .85.23 1.019.687l13.7 33.842V1.374c0-.572.34-.916.906-.916h.453c.566 0 .906.344.906.916v38.252c0 .572-.34.916-.906.916h-.623c-.51 0-.849-.23-1.019-.687L256.302 6.013v33.613zm26.65 0c0 .573-.34.917-.905.917h-.453c-.566 0-.906-.344-.906-.916V1.374c0-.572.34-.916.906-.916h.736c.51 0 .849.23 1.019.687l13.7 33.842V1.374c0-.572.34-.916.906-.916h.453c.566 0 .906.344.906.916v38.252c0 .572-.34.916-.906.916h-.623c-.51 0-.85-.23-1.019-.687L282.952 6.013v33.613zm39.672 0c0 .573-.34.917-.906.917h-13.474c-.566 0-.905-.344-.905-.916V1.374c0-.572.34-.916.905-.916h13.305c.566 0 .905.344.905.916v.344c0 .573-.34.916-.905.916h-11.946v16.492h10.19c.567 0 .906.343.906.916v.343c0 .573-.34.917-.905.917h-10.19v17.064h12.114c.567 0 .906.343.906.916v.344zm22.632-14.83c.566 0 .905.343.905.916v6.814c0 5.612-2.83 8.475-8.831 8.475h-.114c-6 0-8.831-2.806-8.831-8.475V8.475c0-5.383 2.83-8.475 8.831-8.475h.114c6 0 8.831 3.092 8.831 8.475v5.84c0 .573-.34.917-.905.917h-.453c-.567 0-.906-.344-.906-.916v-4.81c0-5.097-1.699-7.33-6.624-7.33s-6.624 2.233-6.624 7.33v21.988c0 5.097 1.699 7.33 6.624 7.33s6.624-2.233 6.624-7.33v-5.783c0-.573.34-.916.906-.916h.453zM367.094.458c.566 0 .906.344.906.916v.344c0 .573-.34.916-.906.916h-6.737v36.992c0 .572-.34.916-.906.916h-.453c-.566 0-.905-.344-.905-.916V2.634h-6.737c-.566 0-.906-.343-.906-.916v-.344c0-.572.34-.916.906-.916h15.738z" fill="#00A3DA" fill-rule="nonzero"></path></g></svg>