<svg xmlns="http://www.w3.org/2000/svg" width="48" height="48" viewBox="0 0 48 48" fill="none">
<g clip-path="url(#clip0_12230_33708)">
<rect width="48" height="48" fill="white"/>
<path d="M16.5 23.5C17.0552 23.5 17.54 23.1984 17.7993 22.75H33C34.2426 22.75 35.25 23.7574 35.25 25V27C35.25 28.2426 34.2426 29.25 33 29.25H17.7993C17.54 28.8016 17.0552 28.5 16.5 28.5C15.6716 28.5 15 29.1716 15 30C15 30.8284 15.6716 31.5 16.5 31.5C17.0552 31.5 17.54 31.1984 17.7993 30.75H33C35.0711 30.75 36.75 29.0711 36.75 27V25C36.75 22.9289 35.0711 21.25 33 21.25H17.7993C17.54 20.8016 17.0552 20.5 16.5 20.5C15.6716 20.5 15 21.1716 15 22C15 22.8284 15.6716 23.5 16.5 23.5Z" fill="#00AEEF"/>
<path d="M33 18C33 18.8284 32.3284 19.5 31.5 19.5C30.9448 19.5 30.46 19.1984 30.2007 18.75H15C13.7574 18.75 12.75 19.7574 12.75 21V23C12.75 24.2426 13.7574 25.25 15 25.25H30.2007C30.46 24.8016 30.9448 24.5 31.5 24.5C32.3284 24.5 33 25.1716 33 26C33 26.8284 32.3284 27.5 31.5 27.5C30.9448 27.5 30.46 27.1984 30.2007 26.75H15C12.9289 26.75 11.25 25.0711 11.25 23V21C11.25 18.9289 12.9289 17.25 15 17.25H30.2007C30.46 16.8016 30.9448 16.5 31.5 16.5C32.3284 16.5 33 17.1716 33 18Z" fill="#6D6E71"/>
</g>
<defs>
<clipPath id="clip0_12230_33708">
<rect width="48" height="48" fill="white"/>
</clipPath>
</defs>
</svg>